<?xml version="1.0" standalone="no"?>
<!DOCTYPE svg PUBLIC "-//W3C//DTD SVG 20010904//EN"
 "http://www.w3.org/TR/2001/REC-SVG-20010904/DTD/svg10.dtd">
<svg version="1.0" xmlns="http://www.w3.org/2000/svg"
 width="200.000000pt" height="200.000000pt" viewBox="0 0 200.000000 200.000000"
 preserveAspectRatio="xMidYMid meet">
<metadata>
Created by potrace 1.14, written by Peter Selinger 2001-2017
</metadata>
<g transform="translate(0.000000,200.000000) scale(0.100000,-0.100000)"
fill="#000000" stroke="none">
<path d="M946 1952 c-10 -2 -33 -18 -50 -35 -18 -18 -45 -41 -60 -52 -16 -11
-34 -25 -41 -32 -7 -6 -51 -35 -98 -62 -111 -66 -174 -130 -224 -229 -13 -25
-30 -53 -38 -62 -8 -9 -15 -22 -15 -28 0 -7 -4 -12 -9 -12 -5 0 -13 -10 -17
-22 -3 -13 -13 -31 -22 -40 -8 -10 -12 -18 -9 -18 3 0 -1 -16 -9 -35 -8 -20
-12 -40 -9 -45 3 -5 1 -11 -4 -15 -11 -6 -13 -393 -2 -410 14 -23 10 -158 -6
-181 -16 -24 -43 -33 -43 -13 0 16 -43 -18 -46 -37 -2 -9 10 -21 29 -29 25
-10 32 -20 33 -42 1 -15 4 -38 7 -50 4 -16 0 -23 -19 -27 -14 -4 -29 -4 -34
-1 -5 3 -11 1 -15 -4 -3 -6 14 -19 39 -31 25 -11 47 -24 50 -28 3 -5 18 -7 34
-4 27 4 29 2 25 -22 -3 -15 -2 -26 3 -24 5 1 19 -3 32 -10 21 -12 30 -51 14
-66 -4 -4 -8 -20 -8 -34 -1 -15 -2 -35 -3 -44 -1 -10 -8 -18 -16 -18 -41 0 7
-36 55 -42 14 -2 25 -10 26 -18 1 -23 15 -50 25 -50 5 0 11 10 14 23 5 19 13
23 48 22 l42 0 0 53 c-1 44 2 52 18 52 10 0 37 -18 59 -40 23 -22 47 -40 54
-40 7 0 14 -4 16 -10 2 -5 17 -11 35 -14 17 -2 39 -11 48 -20 9 -9 23 -16 30
-16 8 0 29 -8 47 -18 18 -10 38 -17 45 -15 7 3 20 0 30 -5 11 -7 24 -7 36 0
10 5 30 12 44 14 14 3 39 12 55 20 17 9 39 17 51 19 11 3 30 13 41 23 12 10
29 25 39 33 10 8 26 23 35 33 9 11 36 39 59 64 24 24 40 48 37 53 -3 5 0 9 5
9 6 0 11 7 11 15 0 10 11 15 35 15 31 0 36 -4 41 -29 6 -29 48 -59 59 -41 3 5
11 7 18 4 8 -3 20 11 30 32 15 31 21 35 42 30 27 -7 28 -4 26 57 -1 40 -16 73
-53 119 l-22 28 23 24 c14 15 29 22 39 19 12 -5 14 -2 7 13 -11 25 -8 134 5
149 5 6 8 14 5 17 -6 6 -12 68 -21 198 -14 220 -22 283 -48 364 -25 79 -66
147 -133 215 -23 24 -51 63 -62 86 -31 67 -94 138 -157 178 -33 21 -67 51 -75
66 -26 46 -161 88 -233 73z"/>
</g>
</svg>
